PathFileType	4	(X/Y/Z)	/Users/mathieubourgeois/Desktop/Analyse/Traitement/Sujet_08/Data/Transformed_Sujet_08_velo_80.trc
DataRate	CameraRate	NumFrames	NumMarkers	Units	OrigDataRate	OrigDataStartFrame	OrigNumFrames
120.000000	120.000000	4	35	mm	120.000000	1408	1878
Frame#	Time	RFHD			RANE			STRN			LANI			LKNE			T10			RHUM			RWRB			C7			LFWT			LTOE			RTOE			LWRA			LBWT			RBWT			RFWT			LKNI			RKNE			LANE			LHEE			LHUM			LRAD			RRAD			RWRA			LWRB			LFHD			LBHD			RBHD			RSHO			LSHO			CLAV			LCAR			RCAR			RANI			RKNI			
		X1	Y1	Z1	X2	Y2	Z2	X3	Y3	Z3	X4	Y4	Z4	X5	Y5	Z5	X6	Y6	Z6	X7	Y7	Z7	X8	Y8	Z8	X9	Y9	Z9	X10	Y10	Z10	X11	Y11	Z11	X12	Y12	Z12	X13	Y13	Z13	X14	Y14	Z14	X15	Y15	Z15	X16	Y16	Z16	X17	Y17	Z17	X18	Y18	Z18	X19	Y19	Z19	X20	Y20	Z20	X21	Y21	Z21	X22	Y22	Z22	X23	Y23	Z23	X24	Y24	Z24	X25	Y25	Z25	X26	Y26	Z26	X27	Y27	Z27	X28	Y28	Z28	X29	Y29	Z29	X30	Y30	Z30	X31	Y31	Z31	X32	Y32	Z32	X33	Y33	Z33	X34	Y34	Z34	X35	Y35	Z35	

1409	11.73333333333333	269.3418579101562	1377.517822265625	100.5344543457031	-195.1913604736328	621.1209106445312	169.9071960449218	-55.22785568237305	1158.868896484375	21.96003341674797	-153.7176208496094	277.7467041015625	-81.34394836425784	-101.1340560913086	686.8035278320312	-149.3763580322266	-196.5518493652344	1355.435546875	19.03029251098622	148.6239471435547	1076.242919921875	207.3101043701172	338.0476379394531	908.8876342773438	254.8544158935547	40.75228118896484	1421.667114257812	27.12248039245597	-252.5401763916016	1094.429077148438	-109.4735336303712	-4.214373588561997	164.9172821044922	-126.7415237426758	-53.83868408203126	488.578369140625	143.8594970703125	364.9721374511719	937.33740234375	-172.7913208007812	-393.2405395507812	1151.250854492188	-43.08566665649426	-392.503662109375	1153.438598632812	88.76607513427723	-239.8311767578125	1096.33349609375	121.0936126708983	-118.0840301513672	618.1404418945312	-46.20763397216802	36.13063430786131	925.6516723632812	196.0381469726562	-194.7887115478515	267.3181457519531	-160.7702789306641	-237.2552185058594	250.7697601318359	-114.1844482421875	138.9288024902344	1077.425048828125	-175.5387878417969	191.0179901123047	1108.985595703125	-227.9114074707032	188.018325805664	1098.777221679688	254.72705078125	362.5621643066406	928.9345092773438	187.4112396240234	330.1797180175781	897.7696533203125	-226.826904296875	287.5085754394531	1372.207641601562	-28.76775932312017	198.0593566894531	1496.04052734375	-57.66276931762702	182.8915405273438	1519.0546875	78.43194580078118	70.73035430908202	1362.310546875	146.6093139648437	65.40816497802736	1364.1826171875	-112.9698104858399	60.47029495239258	1284.74853515625	22.44656372070305	427.9499511718751	917.2211303710938	-255.2579040527344	439.6636352539062	909.4736938476562	275.85986328125	-165.6259460449219	622.5933227539062	91.89044952392572	46.15763092041014	873.5878295898438	88.85054779052729	
1410	11.74166666666667	269.1933898925781	1377.421264648438	101.4457397460937	-185.6443176269532	621.1421508789062	169.7290496826171	-55.26807403564453	1158.890747070312	21.94006156921379	-164.2388763427734	277.7111206054688	-80.88751220703128	-103.8199996948242	685.4927368164062	-149.9410095214844	-196.4697875976562	1355.549438476562	19.16530418395985	148.3460693359375	1075.763305664062	207.3370513916015	338.0340576171874	908.7958374023438	254.8668518066406	40.81560134887695	1421.647827148438	27.55645751953116	-253.0577087402344	1094.591796875	-109.6506729125978	-16.97840309143065	161.8263854980469	-126.7559432983399	-40.64643478393556	492.5108642578125	143.7297668457031	364.9995422363281	937.4382934570312	-172.6999206542969	-393.5685424804688	1151.55615234375	-42.74331283569348	-392.641357421875	1153.949340820312	89.05428314208973	-240.377685546875	1096.841674804688	120.948631286621	-120.3838806152344	617.4422607421875	-46.75193786621099	37.45493316650388	932.3739624023438	194.6955871582031	-205.5291748046875	268.1098022460938	-160.1821289062501	-248.1514739990234	252.4129638671875	-113.3504104614258	138.9460906982422	1077.556762695312	-175.4379425048828	191.0186157226563	1109.08984375	-227.8090362548828	187.728759765625	1098.47265625	254.7847290039062	362.5487976074219	928.8461303710938	187.4819641113281	330.1598205566406	897.804443359375	-226.7296752929688	287.6815795898438	1372.382202148438	-27.99376678466802	198.2030639648438	1496.2021484375	-56.70861053466804	182.7567138671875	1518.966674804688	79.38374328613274	70.54842376708983	1362.123413085938	147.0687103271484	65.67372894287111	1364.336303710938	-112.5398559570313	60.49469757080078	1284.7529296875	22.71173095703118	427.9453125000001	917.2416381835938	-255.1500549316406	439.6214599609374	909.4344482421875	275.9815673828125	-156.2728576660156	623.3001098632812	91.70800018310541	48.61804580688475	880.0718994140625	87.55968475341791	
1411	11.75	269.0316772460938	1377.247314453125	102.1626052856445	-175.9773101806641	620.0773315429688	169.7288513183593	-55.38964080810547	1158.879150390625	21.89080238342277	-174.4237518310547	278.6658935546875	-80.31147766113286	-105.4021377563476	684.8329467773438	-150.5968627929688	-196.4618072509766	1355.676025390625	19.28515052795399	148.153823852539	1075.62646484375	207.3747100830078	338.0288696289062	908.6990356445312	254.9120330810547	40.76642608642578	1421.580688476562	27.90787506103507	-253.6889801025391	1094.7587890625	-109.779769897461	-29.79262542724608	159.6033935546875	-126.8038330078125	-27.3997325897217	495.616455078125	143.3019714355468	364.9602966308594	937.5092163085938	-172.6315460205078	-394.0386352539062	1151.848999023438	-42.40060043334973	-392.9025268554688	1154.564697265625	89.19968414306629	-241.1096496582032	1097.41748046875	120.9784240722655	-122.2467956542969	617.4569702148438	-47.16872787475591	38.70622634887693	938.1536254882812	193.2840270996093	-216.4387054443359	270.066650390625	-159.3493652343751	-258.9640808105469	255.1382141113281	-112.4534530639649	138.8770141601563	1077.657104492188	-175.4231719970703	190.9908294677735	1109.150756835938	-227.7207183837891	187.5271911621093	1098.181396484375	254.7978363037109	362.5479431152344	928.7715454101562	187.5686645507812	330.1354675292969	897.8491821289062	-226.6289215087891	287.7615356445312	1372.515747070312	-27.25165748596196	198.2687530517578	1496.36083984375	-55.91518783569343	182.53515625	1518.816284179688	80.23609161376946	70.34784698486327	1361.909423828125	147.4437103271484	65.82952117919923	1364.414794921875	-112.2455368041993	60.45068740844727	1284.712036132812	22.94222259521477	427.9294738769532	917.7128295898438	-255.8482513427734	439.5996398925781	909.3831176757812	276.1146545410156	-148.1783599853516	622.680908203125	91.79505920410151	49.7558364868164	885.7643432617188	85.67971038818354	
1412	11.75833333333333	268.7871704101562	1377.065551757812	102.8287277221679	-166.2731018066407	617.88623046875	169.8949890136718	-55.5843391418457	1158.877319335938	21.85552406311027	-184.0432434082031	280.6929626464844	-79.89122009277348	-106.1498870849609	684.7670288085938	-151.3275451660157	-196.5460357666016	1355.83740234375	19.41282653808583	147.9922943115234	1075.391235351562	207.3415832519531	338.0231018066406	908.6602172851562	254.9735412597656	40.67046356201172	1421.493896484375	28.22614479064933	-254.3947143554688	1094.938842773438	-109.880226135254	-42.68526077270506	158.2576293945312	-126.772445678711	-14.42083454132082	497.6535339355469	142.7300872802734	364.9012451171875	937.58349609375	-172.5457916259766	-394.5693054199219	1152.114624023438	-42.16929244995129	-393.3217468261719	1155.20361328125	89.21166992187489	-241.9839324951172	1098.0009765625	120.9316787719726	-127.8443984985352	617.8475952148438	-47.59017944335942	39.29902648925779	942.832763671875	191.7977142333984	-226.3041687011718	272.8584594726562	-158.7972259521485	-269.5619201660156	258.934814453125	-111.4655838012696	138.7561187744141	1077.684692382812	-175.4238739013672	190.9200897216797	1109.1875	-227.6447906494141	187.3995056152343	1098.001220703125	254.7664337158203	362.5733032226562	928.7009887695312	187.6458282470703	330.113037109375	897.9093627929688	-226.5229034423828	287.7244262695312	1372.537841796875	-26.62155342102056	198.2134246826172	1496.39990234375	-55.23951721191413	182.1977996826172	1518.598999023438	80.9717712402343	70.11066436767577	1361.657592773438	147.6878967285155	65.88387298583986	1364.421142578125	-111.9977111816407	60.30204772949219	1284.614379882812	23.05632781982415	427.9288024902344	917.7581787109375	-255.7429962158203	439.5727233886718	909.3632202148438	276.2809753417969	-136.2195739746094	621.337646484375	91.48036193847651	53.70133590698241	889.3223266601562	85.25067138671869	
